<svg xmlns="http://www.w3.org/2000/svg" viewBox="0 0 512 512" width="512" height="512">
  <defs>
    <linearGradient id="mcBg" x1="0%" y1="0%" x2="100%" y2="100%">
      <stop offset="0%" stop-color="#2575FC" />
      <stop offset="60%" stop-color="#1D68F2" />
      <stop offset="100%" stop-color="#144BCC" />
    </linearGradient>
    <linearGradient id="cardGrad" x1="0%" y1="0%" x2="0%" y2="100%">
      <stop offset="0%" stop-color="#FFFFFF" />
      <stop offset="100%" stop-color="#F8FAFC" />
    </linearGradient>
    <filter id="cShadow" x="-20%" y="-20%" width="140%" height="140%">
      <feDropShadow dx="0" dy="16" stdDeviation="16" flood-color="#091E4A" flood-opacity="0.28" />
    </filter>
    <filter id="bShadow" x="-20%" y="-20%" width="140%" height="140%">
      <feDropShadow dx="0" dy="8" stdDeviation="10" flood-color="#091E4A" flood-opacity="0.18" />
    </filter>
  </defs>

  <!-- Fundo Squircle Azul Vibrante #1D68F2 -->
  <rect width="512" height="512" rx="116" fill="url(#mcBg)" />

  <!-- Brilho óptico superior sutil -->
  <path d="M0 116 C0 52 52 0 116 0 L396 0 C460 0 512 52 512 116 L512 150 C330 110 170 170 0 190 Z" fill="#FFFFFF" opacity="0.14" />

  <!-- Card Secundário em Perspectiva (Decks/Flashcards) -->
  <g transform="translate(256, 260) rotate(9) translate(-130, -155)" filter="url(#bShadow)">
    <rect width="260" height="310" rx="36" fill="#BFDBFE" />
    <rect x="30" y="38" width="110" height="14" rx="7" fill="#60A5FA" />
    <rect x="30" y="66" width="180" height="10" rx="5" fill="#93C5FD" />
  </g>

  <!-- Card Principal Frontal com cantos arredondados e sombra -->
  <g transform="translate(126, 105)" filter="url(#cShadow)">
    <rect width="260" height="310" rx="36" fill="url(#cardGrad)" stroke="#FFFFFF" stroke-width="4" />

    <!-- Tag Superior "MED" -->
    <rect x="26" y="26" width="66" height="22" rx="8" fill="#EFF6FF" />
    <text x="59" y="41" font-family="-apple-system, BlinkMacSystemFont, 'Segoe UI', Roboto, sans-serif" font-size="11" font-weight="900" fill="#1D68F2" text-anchor="middle" letter-spacing="1">MED</text>

    <!-- Cruz Médica com Pulso de ECG Integrado -->
    <g transform="translate(130, 155)">
      <!-- Cruz Médica com cantos suaves -->
      <rect x="-22" y="-68" width="44" height="136" rx="18" fill="#1D68F2" />
      <rect x="-68" y="-22" width="136" height="44" rx="18" fill="#1D68F2" />
      
      <!-- Círculo Central Branco de Contraste -->
      <circle cx="0" cy="0" r="42" fill="#FFFFFF" />
      
      <!-- Onda de Batimento Cardíaco / Pulso Clínico em Vermelho Coral -->
      <path d="M-34 0 L-18 0 L-8 -20 L4 22 L14 -10 L22 0 L34 0" 
            fill="none" 
            stroke="#EF4444" 
            stroke-width="6" 
            stroke-linecap="round" 
            stroke-linejoin="round" />
    </g>

    <!-- Linhas de Estudo do Flashcard -->
    <rect x="36" y="254" width="188" height="8" rx="4" fill="#CBD5E1" />
    <rect x="65" y="272" width="130" height="7" rx="3.5" fill="#E2E8F0" />
  </g>

  <!-- Brilho sutil no canto -->
  <circle cx="414" cy="98" r="6" fill="#93C5FD" opacity="0.85" />
</svg>
